<svg width="304" height="145" viewBox="0 0 304 145" fill="none" xmlns="http://www.w3.org/2000/svg">
<rect y="120.623" width="303.908" height="24.3126" rx="12.1563" fill="#FBBF24"/>
<path fill-rule="evenodd" clip-rule="evenodd" d="M91.1723 15.3224C54.8368 36.3412 30.3904 75.627 30.3904 120.623H273.516C273.516 75.6271 249.07 36.3414 212.735 15.3226V75.0369C212.735 83.4291 205.932 90.2323 197.54 90.2323C189.147 90.2323 182.344 83.4291 182.344 75.0369V2.88935C177.394 1.61533 172.322 0.645246 167.15 0.000169323V75.0369C167.15 83.4291 160.346 90.2323 151.954 90.2323C143.562 90.2323 136.759 83.4291 136.759 75.0369V0C131.586 0.645063 126.513 1.61518 121.563 2.88927V75.0369C121.563 83.4291 114.76 90.2323 106.368 90.2323C97.9755 90.2323 91.1723 83.4291 91.1723 75.0369V15.3224Z" fill="#FBBF24"/>
</svg>
