<?xml version="1.0" encoding="iso-8859-1"?>
<!-- Generator: Adobe Illustrator 27.0.0, SVG Export Plug-In . SVG Version: 6.00 Build 0)  -->
<svg version="1.1" id="Layer_1" xmlns="http://www.w3.org/2000/svg" xmlns:xlink="http://www.w3.org/1999/xlink" x="0px" y="0px"
	 viewBox="45 0 400 400" style="enable-background:new 0 0 500 500;" xml:space="preserve">

<path style="fill:#069B94;" d="M92.545,206.554c4.502,3.73,9.789,6.337,25.278,3.258c3.589-0.724,7.905-1.479,12.505-2.242
	c0.858,4.693,2.185,9.964,4.192,16.108c2.454,7.538,4.937,13.257,7.425,17.993c-4.008,2.028-7.786,3.898-10.999,5.394
	c-14.304,6.627-17.506,11.735-18.506,17.547c-1.247,7.334,3.044,13.481,3.044,13.481c8.345,12.612,16.381,24.574,38.717,40.656
	c22.318,16.108,35.173,18.91,49.453,24.194c0,0,9.533,2.489,15.569-1.4c4.893-3.211,9.011-7.391,10.778-23.061
	c0.404-3.525,0.984-7.702,1.639-12.146c5.086,0.85,11.049,1.426,18.544,1.505c6.312,0.055,11.643-0.24,16.313-0.783
	c0.592,4.083,1.111,7.911,1.476,11.176c1.797,15.691,5.907,19.878,10.849,23.103c6.009,3.878,15.522,1.345,15.522,1.345
	c14.31-5.267,27.137-8.048,49.489-24.141c22.319-16.089,30.333-28.055,38.714-40.664c0,0,4.219-6.2,2.981-13.522
	c-0.991-5.771-4.126-10.909-18.446-17.557c-2.71-1.253-5.822-2.775-9.134-4.437c2.702-4.903,5.413-10.877,8.108-18.926
	c1.958-5.83,3.298-10.87,4.206-15.377c3.505,0.596,6.777,1.184,9.603,1.753c15.504,3.079,20.72,0.472,25.279-3.258
	c5.55-4.544,6.087-14.372,6.087-14.372c-0.668-15.22,0.585-28.325-7.933-54.52c-8.507-26.147-17.434-37.455-26.897-49.245
	c0,0-4.564-5.946-11.967-7.009c-5.8-0.826-11.657,0.63-22.336,12.213c-1.695,1.84-3.655,3.892-5.772,6.068
	c-3.555-3.509-7.942-7.288-13.748-11.513c-6.775-4.931-12.517-8.353-17.679-10.879c1.482-2.823,2.894-5.453,4.175-7.734
	c7.71-13.755,6.844-19.573,4.699-25.042c-2.593-6.675-11.759-10.208-11.759-10.208C287.308,30.24,275.266,25,247.713,25
	c-27.499,0-40.964,4.989-55.116,10.369c0,0-7.12,2.476-10.407,9.152c-2.557,5.284-3.001,11.287,4.72,25.042
	c1.555,2.768,3.301,6.046,5.132,9.564c-4.314,2.358-9.046,5.367-14.43,9.354c-6.387,4.725-11.042,8.891-14.756,12.741
	c-2.689-2.744-5.182-5.334-7.271-7.601c-10.724-11.583-16.543-13.039-22.39-12.213c-7.346,1.063-11.921,7.009-11.921,7.009
	c-9.461,11.79-18.359,23.098-26.898,49.245c-8.507,26.195-7.256,39.299-7.925,54.52C86.452,192.181,86.965,202.01,92.545,206.554z
	 M217.458,316.685c-5.042,1.549-14.441-2.318-14.441-2.318c-6.803-2.33-17.611-6.395-32.517-17.106
	c-14.886-10.753-21.149-19.317-27.308-25.991c0,0-6.696-7.743-6.783-13.013c-0.071-3.223,2.954-5.875,9.537-9.69
	c2.614,4.118,5.219,7.633,7.785,11.504c0,0,4.657,5.688,10.043,6.006c4.44,0.26,8.791-0.468,16.912-9.061
	c2.041-2.192,4.595-4.785,7.327-7.508c0.587,0.525,1.207,1.057,1.869,1.6c11.902,9.662,13.878,10.309,17.465,12.562
	c0.705,0.445,1.387,0.853,2.053,1.235c-1.834,3.421-3.593,6.633-5.112,9.232c-5.896,10.235-5.311,14.561-3.706,18.637
	c1.922,5.003,8.796,7.704,8.796,7.704c4.751,1.351,9.135,2.861,14.238,4.162C222.086,312.035,220.515,315.723,217.458,316.685z
	 M177.063,186.479c-0.163-1.773-0.073-3.894,0.211-6.221c12.26,2.156,5.548,4.549,9.194,18.545
	c2.823,11.117,3.79,12.331,4.959,15.307c5.261,13.318,12.111,11.541,3.651,20.208c-1.052-1.221-1.927-2.389-2.565-3.464
	c-5.222-8.754-6.815-9.566-14.284-7.039c-3.357,1.124-10.318,4.567-18.265,8.624c-1.942-3.805-3.988-8.529-5.93-14.469
	c-1.729-5.325-2.744-9.779-3.397-13.661c8.489-1.376,15.795-2.657,19.047-3.684C177.23,198.229,178.034,196.654,177.063,186.479z
	 M240.481,126.714c-0.033-2.021-0.574-5.865-1.332-10.513c7.135-0.707,15.48-0.548,22.059,0.556
	c-0.695,4.492-1.19,8.198-1.227,10.165c-0.095,5.889,0.859,6.794,8.387,8.548c7.042,1.572,21.057,11.52,24.972,18.132
	c3.869,6.591,5.061,7.209,10.684,5.392c1.779-0.568,4.914-1.983,8.713-3.804c2.751,5.672,5.248,12.887,6.683,19.421
	c-4.443,0.722-8.075,1.394-9.938,1.973c-5.703,1.73-6.341,2.885-5.637,10.532c0.614,7.089-4.619,23.357-9.781,29.062
	c-5.131,5.718-5.331,6.991-1.903,11.774c1.333,1.787,4.431,5.042,8.201,8.867c-4.548,4.508-10.91,9.351-16.959,12.905
	c-2.222-4.316-4.134-7.85-5.339-9.548c-3.401-4.795-4.708-5.004-11.828-2.062c-6.648,2.798-23.905,2.798-30.96-0.29
	c-7.083-3.07-8.39-2.915-11.934,1.806c-1.422,1.941-3.854,6.325-6.639,11.528c-6.009-3.277-12.593-8.055-17.555-12.667
	c4.213-4.189,7.74-7.799,9.196-9.72c3.548-4.685,3.348-5.995-1.766-11.748c-5.078-5.734-10.18-22.082-9.497-29.175
	c0.737-7.585,0.158-8.775-5.499-10.565c-2.337-0.741-7.389-1.649-13.336-2.624c1.514-6.923,4.216-14.615,7.164-20.431
	c4.921,2.348,9.079,4.245,11.232,4.916c5.675,1.787,6.839,1.173,10.703-5.43c3.852-6.621,17.822-16.734,24.845-18.434
	C239.67,133.58,240.66,132.586,240.481,126.714z M327.959,200.625c3.642,1.144,12.29,2.601,22,4.155
	c-0.691,3.688-1.727,7.889-3.393,12.813c-2.182,6.516-4.477,11.581-6.62,15.563c-8.735-4.478-16.56-8.399-20.172-9.596
	c-7.459-2.53-9.055-1.695-14.289,7.071c-0.333,0.558-0.732,1.143-1.182,1.745c-6.606-7.401-0.213-6.302,4.957-18.98
	c1.185-2.924,2.133-4.171,5.122-15.235c3.361-12.453-1.638-15.75,6.032-17.792c0.272,2.281,0.353,4.363,0.186,6.107
	C319.647,196.654,320.422,198.229,327.959,200.625z M335.876,177.961c8.506-1.117,12.642-1.238,14.327,1.148
	c2.273,3.241,1.596,10.841,1.596,10.841c-0.264,2.179-0.447,4.498-0.723,7.074c-0.391-0.057-0.778-0.115-1.177-0.173
	C331.958,194.202,337.681,191.947,335.876,177.961z M335.97,239.734c-0.593,0.877-1.155,1.673-1.67,2.384
	c0,0-4.067,6.463-7.779,7.707c-2.645,0.865-5.646-1.258-10.993-6.318c6.707-8.196,5.454-11.699,19.876-4.072
	C335.596,239.537,335.78,239.634,335.97,239.734z M183.719,245.196c-4.692,4.26-7.454,6.023-9.861,5.19
	c-3.748-1.271-7.758-7.824-7.758-7.824c-0.706-1.009-1.508-2.179-2.371-3.532C177.751,231.846,175.791,236.196,183.719,245.196z
	 M149.653,196.563c-0.208-2.247-0.358-4.308-0.566-6.27c0,0-0.579-7.606,1.659-10.823c1.489-2.062,4.763-2.231,11.04-1.48
	C160.04,191.442,165.318,194.024,149.653,196.563z M226.997,284.907c-1.702-0.446-3.177-0.889-4.455-1.288
	c0,0-7.445-1.843-9.795-4.998c-1.532-2.042-0.629-5.207,2.148-10.979C226,272.349,229.517,269.079,226.997,284.907z
	 M260.884,265.999c0.017,3.65,1.161,11.748,2.559,20.949c-3.788,0.489-8.19,0.81-13.515,0.762c-6.077-0.053-11.1-0.538-15.262-1.201
	c1.35-8.91,2.437-16.69,2.462-20.238c0.018-7.912-1.266-9.157-11.213-11.302c-1.184-0.266-2.489-0.696-3.874-1.252
	c5.756-10.41,6.077-3.441,20.541-2.429c3.187,0.217,4.648,0.734,16.223,0.185c13.546-0.68,14.787-6.847,19.473,0.977
	c-2.252,1.057-4.358,1.841-6.182,2.243C262.128,256.885,260.839,258.114,260.884,265.999z M285.271,266.433
	c3.334,7.062,4.515,10.704,2.77,12.943c-2.392,3.114-9.906,4.768-9.906,4.768c-2.178,0.426-4.446,0.962-6.98,1.486
	C268.186,267.684,272.216,272.699,285.271,266.433z M361.616,258.042c-0.101,5.231-6.838,12.97-6.838,12.97
	c-6.134,6.741-12.413,15.251-27.314,25.992c-14.841,10.723-25.657,14.805-32.454,17.101c0,0-9.438,3.933-14.451,2.366
	c-2.877-0.907-4.44-4.208-5.887-10.724c6.55-1.365,11.819-3.251,17.223-5.221c0,0,5.358-1.815,7.856-6.762
	c2.005-3.912,2.372-8.372-3.342-18.702c-1.762-3.169-3.849-7.224-5.992-11.464c0.084-0.051,0.166-0.101,0.252-0.156
	c3.584-2.261,5.541-2.852,17.455-12.584c1.233-1.004,2.328-1.979,3.309-2.919c3.048,3.073,5.921,6.013,8.167,8.45
	c8.033,8.695,12.401,9.456,16.811,9.211c5.413-0.266,10.124-5.947,10.124-5.947c2.365-3.48,4.763-6.68,7.176-10.321
	C359.147,252.628,361.66,255.091,361.616,258.042z M339.888,141.997c10.851-4.845,12.887-8.671,14.054-12.905
	c1.405-5.158-2.566-11.329-2.566-11.329c-3.145-3.961-5.875-7.827-9.384-11.959c3.93-3.171,6.659-4.348,9.125-3.492
	c4.947,1.653,10.288,10.396,10.288,10.396c4.49,7.925,10.739,16.524,16.419,33.967c5.657,17.47,6.218,29.002,6.355,36.11
	c0,0,0.859,10.222-2.183,14.513c-1.598,2.279-4.782,2.855-10.449,2.45c0.689-6.566,0.484-12.089,0.226-17.751
	c0,0-0.089-5.616-4.106-9.476c-3.15-3.067-7.373-4.807-19.024-2.557c-3.832,0.739-8.751,1.516-13.831,2.289
	c-0.061-0.254-0.124-0.51-0.191-0.77c-1.077-4.094-1.053-6.176-6.662-20.493c-0.381-0.968-0.768-1.873-1.157-2.728
	C331.562,145.906,336.21,143.636,339.888,141.997z M325.395,121.51c0.673-0.658,1.323-1.295,1.96-1.92
	c1.332,1.57,2.419,2.975,3.325,4.179c0,0,4.971,5.821,4.998,9.766c0.038,3.019-3.578,5.335-11.639,9.492
	C317.831,132.801,313.171,133.505,325.395,121.51z M310.921,104.634c4.652,3.39,8.293,6.536,11.203,9.367
	c-7.449,7.469-14.2,14.324-16.591,17.582c-4.709,6.349-4.398,8.122,2.369,15.787c0.615,0.7,1.24,1.544,1.867,2.498
	c-6.431,1.987-4.833-3.461-14.41-11.39c-2.477-2.032-3.39-3.296-13.087-9.515c-10.788-6.917-15.551-3.46-15.28-10.814
	c0.543,0.185,1.065,0.378,1.543,0.585c9.422,4.038,11.179,3.79,15.766-2.638c2.292-3.207,6.577-11.451,11.255-20.611
	C299.86,97.533,304.861,100.266,310.921,104.634z M269.476,102.568c1.562-8.409,2.731-12.364,5.579-13.181
	c3.786-1.149,10.899,1.838,10.899,1.838c0.786,0.359,1.595,0.714,2.43,1.075c-0.29,0.583-0.584,1.177-0.884,1.783
	C280.346,108.461,279.224,105.294,269.476,102.568z M197.92,63.682c3.163-4.169,13.131-6.597,13.131-6.597
	C219.943,55.27,230.038,52,248.379,52c18.372,0,29.507,3.008,36.334,5.085c0,0,9.972,2.429,13.141,6.597
	c1.597,2.139,1.227,5.24-0.752,10.261c-4.378-1.636-8.461-2.772-12.621-3.909c0,0-5.401-1.641-10.396,0.889
	c-3.939,2.03-6.866,5.418-8.336,17.109c-0.469,3.715-1.214,8.413-2.015,13.279c-1.538-0.243-3.229-0.439-5.099-0.556
	c-4.208-0.248-6.177-0.928-21.507,0c-0.212,0.013-0.419,0.028-0.626,0.043c-0.815-4.732-1.569-9.289-2.048-12.918
	c-1.545-11.676-4.523-15.05-8.447-17.034c-4.98-2.522-10.416-0.812-10.416-0.812c-5.291,1.504-10.462,2.995-16.267,5.519
	C196.772,69.566,196.145,66.041,197.92,63.682z M230.651,101.533c-13.932,2.57-14.29,8.836-22.365-7.45
	c-0.026-0.053-0.051-0.103-0.077-0.155c2.185-0.979,4.191-1.827,6.074-2.703c0,0,7.065-3.023,10.879-1.93
	C227.909,90.094,229.113,93.775,230.651,101.533z M189.374,104.887c4.529-3.341,8.461-5.737,11.963-7.612
	c4.318,8.431,8.208,15.826,10.379,18.822c4.554,6.427,6.317,6.678,15.689,2.638c1.581-0.687,3.623-1.257,5.954-1.709
	c0.761,8.633-3.97,4.649-15.15,11.937c-9.656,6.26-10.545,7.543-12.995,9.601c-10.602,8.891-7.435,14.583-16.8,10.564
	c0.46-0.652,0.918-1.246,1.371-1.758c6.767-7.665,7.048-9.438,2.387-15.787c-2.239-3.035-8.258-9.194-15.097-16.063
	C180.137,112.377,184.098,108.798,189.374,104.887z M169.765,124.13c0.649-0.861,1.389-1.829,2.239-2.885
	c0.091,0.089,0.179,0.175,0.271,0.265c11.83,11.627,7.84,11.324,1.913,20.608c-6.437-3.353-9.376-5.482-9.376-8.204
	C164.812,130.038,169.765,124.13,169.765,124.13z M113.503,182.786c0.125-7.108,0.695-18.64,6.349-36.11
	c5.676-17.443,11.929-26.042,16.429-33.967c0,0,5.314-8.743,10.288-10.396c2.824-0.981,5.988,0.705,10.902,4.992
	c-3.076,3.773-5.575,7.339-8.42,10.98c0,0-3.969,6.239-2.518,11.344c1.164,4.225,3.273,8.077,14.149,12.863
	c3.026,1.312,6.71,3.045,10.573,4.9c-0.528,1.101-1.055,2.294-1.571,3.598c-5.603,14.317-5.577,16.399-6.627,20.493
	c-0.062,0.241-0.12,0.477-0.178,0.713c-3.841-0.63-7.458-1.255-10.42-1.85c-11.661-2.366-15.871-0.707-19.055,2.369
	c-4.052,3.864-4.201,9.426-4.201,9.426c-0.281,5.54-0.539,10.947,0.021,17.321c-7.646,0.837-11.685,0.502-13.547-2.163
	C112.656,193.008"/>
</svg>
