<svg width="127" height="49" viewBox="0 0 127 49" fill="none" xmlns="http://www.w3.org/2000/svg">
<path d="M0 48.6532V17.3447H9.0291V48.6511H0V48.6532Z" fill="#2C3844"/>
<path d="M7.72786 4.48804C7.69135 4.74163 7.58614 5.02292 7.41436 5.33405C7.25117 5.63026 7.02786 5.94564 6.73584 6.30365C6.18615 6.97278 5.49045 7.65683 4.81622 8.3153C3.86499 9.24868 2.96101 10.1309 2.59383 10.8831C2.09353 11.906 2.06991 12.7606 2.13862 13.304C2.14936 13.3935 2.16439 13.4851 2.18157 13.5746C2.03985 13.4659 1.89813 13.3402 1.75427 13.1974C1.50304 12.9438 1.25826 12.6433 1.03709 12.3003C0.777278 11.906 0.56685 11.5011 0.399366 11.0962C0.236176 10.6871 0.118079 10.2758 0.0558092 9.87093C-0.0751717 9.02066 0.0236008 8.21728 0.34998 7.48422C0.732186 6.62756 1.74138 5.61321 2.71623 4.63295C3.5472 3.7976 4.40824 2.93242 4.93861 2.10773C5.40885 1.38106 5.70302 0.56276 5.86836 -0.00195312C6.10885 0.324088 6.41805 0.775859 6.71651 1.28517C7.49166 2.60851 7.84166 3.71449 7.72786 4.48804Z" fill="url(#paint0_linear_160_2239)"/>
<path d="M8.9841 8.63469C8.93257 8.99909 8.66202 9.47643 8.18748 10.0539C7.73442 10.5973 7.2427 11.0832 6.69731 11.6181C6.01449 12.2829 5.43044 12.8604 5.13627 13.3463C4.93658 13.6809 4.8056 14.0495 4.75406 14.4395C4.71327 14.7677 4.724 15.1044 4.79057 15.4475C4.81204 15.5434 4.83566 15.6414 4.86572 15.7373C4.68321 15.6499 4.51357 15.5434 4.35897 15.4176C4.13566 15.2408 3.94456 15.0277 3.78352 14.789C3.42708 14.2456 3.23597 13.7214 3.19518 13.1971C3.15438 12.6793 3.25745 12.1487 3.51297 11.5776C3.79425 10.9404 4.90008 9.8664 5.87062 8.91811C6.70804 8.09768 7.50252 7.32626 7.9019 6.73385C8.15313 6.36519 8.29914 5.91342 8.38073 5.47656C8.42582 5.59377 8.46877 5.7195 8.51816 5.84522C8.71355 6.39289 8.86386 6.89367 8.95619 7.32839C9.0657 7.84409 9.03349 8.3257 8.9841 8.63469Z" fill="url(#paint1_linear_160_2239)"/>
<path d="M17.1199 48.6527V5.47461H26.149V48.6527H17.1199Z" fill="#2C3844"/>
<path d="M65.1427 48.6532H56.1716V43.1254C54.0029 47.0827 50.3676 49.0027 45.618 49.0027C38.6416 49.0027 34.2419 44.4062 34.2419 37.0159V17.3469H43.271V34.4544C43.271 38.4117 45.5578 40.7984 49.1931 40.7984C53.5326 40.7409 56.1694 37.3654 56.1694 32.8264V17.3447H65.1406V48.6532H65.1427Z" fill="#2C3844"/>
<path d="M127 28.9839V48.6529H118.029V31.6029C118.029 27.5881 115.684 25.2014 111.931 25.2014C107.591 25.2589 104.954 28.6344 104.954 33.1734V48.6529H95.9812V31.6029C95.9812 27.5881 93.6364 25.2014 89.9411 25.2014C85.5435 25.2589 82.9046 28.6344 82.9046 33.1734V48.6529H73.8755V17.3444H82.9046V22.7571C85.1334 18.9171 88.8266 17.0546 93.5763 16.9971C98.9122 16.9971 102.724 19.6736 104.248 24.2126C106.301 19.3838 110.288 17.0546 115.624 16.9971C122.603 16.9971 127 21.6512 127 28.9839Z" fill="#2C3844"/>
<defs>
<linearGradient id="paint0_linear_160_2239" x1="3.18952" y1="13.6713" x2="4.51004" y2="-0.129874" gradientUnits="userSpaceOnUse">
<stop offset="0.1356" stop-color="#E0B65D"/>
<stop offset="0.2496" stop-color="#E4C058"/>
<stop offset="0.6329" stop-color="#F1DC4A"/>
<stop offset="0.8553" stop-color="#F6E645"/>
</linearGradient>
<linearGradient id="paint1_linear_160_2239" x1="5.59623" y1="15.8084" x2="6.60117" y2="5.30556" gradientUnits="userSpaceOnUse">
<stop offset="0.1356" stop-color="#E0B65D"/>
<stop offset="0.2496" stop-color="#E4C058"/>
<stop offset="0.6329" stop-color="#F1DC4A"/>
<stop offset="0.8553" stop-color="#F6E645"/>
</linearGradient>
</defs>
</svg>
