<svg
  width="220"
  height="120"
  viewBox="0 0 159 85"
  fill="none"
  xmlns="http://www.w3.org/2000/svg"
>
  <path
    d="M22.5888 13.1922C22.5888 14.799 22.22 16.2741 21.4824 17.6176C20.7449 18.9346 19.6122 20.0015 18.0844 20.818C16.5566 21.6346 14.66 22.0429 12.3946 22.0429H8.20634V32H1.44976V4.26244H12.3946C14.6073 4.26244 16.4776 4.64439 18.0054 5.4083C19.5332 6.1722 20.679 7.22586 21.4429 8.56927C22.2068 9.91268 22.5888 11.4537 22.5888 13.1922ZM11.881 16.6693C13.1717 16.6693 14.1332 16.3663 14.7654 15.7605C15.3976 15.1546 15.7137 14.2985 15.7137 13.1922C15.7137 12.0859 15.3976 11.2298 14.7654 10.6239C14.1332 10.0181 13.1717 9.71513 11.881 9.71513H8.20634V16.6693H11.881ZM36.1424 32.3161C33.9824 32.3161 32.0331 31.8551 30.2946 30.9332C28.5824 30.0112 27.2258 28.6941 26.2248 26.982C25.2502 25.2698 24.7629 23.2678 24.7629 20.9761C24.7629 18.7107 25.2634 16.722 26.2643 15.0098C27.2653 13.2712 28.6351 11.941 30.3736 11.019C32.1121 10.0971 34.0614 9.6361 36.2214 9.6361C38.3814 9.6361 40.3307 10.0971 42.0692 11.019C43.8077 11.941 45.1775 13.2712 46.1785 15.0098C47.1795 16.722 47.6799 18.7107 47.6799 20.9761C47.6799 23.2415 47.1663 25.2434 46.139 26.982C45.138 28.6941 43.7551 30.0112 41.9902 30.9332C40.2517 31.8551 38.3024 32.3161 36.1424 32.3161ZM36.1424 26.4683C37.4331 26.4683 38.5263 25.9941 39.4219 25.0459C40.3438 24.0976 40.8048 22.741 40.8048 20.9761C40.8048 19.2112 40.357 17.8546 39.4614 16.9063C38.5921 15.9581 37.5121 15.4839 36.2214 15.4839C34.9043 15.4839 33.8112 15.9581 32.9419 16.9063C32.0726 17.8283 31.638 19.1849 31.638 20.9761C31.638 22.741 32.0595 24.0976 32.9024 25.0459C33.7717 25.9941 34.8517 26.4683 36.1424 26.4683ZM60.2337 32.3161C58.3108 32.3161 56.5986 31.9868 55.0971 31.3283C53.5957 30.6698 52.4103 29.7741 51.541 28.6415C50.6718 27.4824 50.1844 26.1917 50.0791 24.7693H56.7566C56.8357 25.5332 57.1913 26.1522 57.8235 26.6263C58.4557 27.1005 59.2327 27.3376 60.1547 27.3376C60.9976 27.3376 61.643 27.1795 62.0908 26.8634C62.5649 26.521 62.802 26.0863 62.802 25.5595C62.802 24.9273 62.4727 24.4663 61.8142 24.1766C61.1557 23.8605 60.0888 23.5181 58.6137 23.1493C57.0332 22.7805 55.7161 22.3985 54.6625 22.0034C53.6088 21.582 52.7 20.9366 51.9361 20.0673C51.1722 19.1717 50.7903 17.9732 50.7903 16.4717C50.7903 15.2073 51.1327 14.0615 51.8176 13.0341C52.5288 11.9805 53.5561 11.1507 54.8996 10.5449C56.2693 9.93903 57.8893 9.6361 59.7596 9.6361C62.5254 9.6361 64.6986 10.321 66.2791 11.6907C67.8859 13.0605 68.8078 14.8781 69.0449 17.1434H62.802C62.6966 16.3795 62.3542 15.7737 61.7747 15.3259C61.2215 14.8781 60.4839 14.6541 59.562 14.6541C58.7718 14.6541 58.1659 14.8122 57.7444 15.1283C57.323 15.4181 57.1122 15.8263 57.1122 16.3532C57.1122 16.9854 57.4415 17.4595 58.1 17.7756C58.7849 18.0917 59.8386 18.4078 61.261 18.7239C62.8942 19.1454 64.2244 19.5668 65.2518 19.9883C66.2791 20.3834 67.1747 21.042 67.9386 21.9639C68.7288 22.8595 69.1371 24.0712 69.1635 25.599C69.1635 26.8898 68.7947 28.0488 68.0571 29.0761C67.3459 30.0771 66.3054 30.8673 64.9357 31.4468C63.5922 32.0263 62.0249 32.3161 60.2337 32.3161ZM76.6952 7.66049C75.5098 7.66049 74.5352 7.31805 73.7713 6.63317C73.0337 5.92195 72.6649 5.05269 72.6649 4.02537C72.6649 2.97171 73.0337 2.10244 73.7713 1.41756C74.5352 0.706345 75.5098 0.350735 76.6952 0.350735C77.8542 0.350735 78.8025 0.706345 79.54 1.41756C80.3039 2.10244 80.6859 2.97171 80.6859 4.02537C80.6859 5.05269 80.3039 5.92195 79.54 6.63317C78.8025 7.31805 77.8542 7.66049 76.6952 7.66049ZM80.0537 9.9522V32H73.2971V9.9522H80.0537ZM97.2384 26.2707V32H93.8009C91.3511 32 89.4413 31.4073 88.0716 30.222C86.7018 29.0102 86.017 27.0478 86.017 24.3346V15.5629H83.3301V9.9522H86.017V4.57854H92.7735V9.9522H97.1989V15.5629H92.7735V24.4137C92.7735 25.0722 92.9316 25.5463 93.2477 25.8361C93.5638 26.1259 94.0906 26.2707 94.8282 26.2707H97.2384ZM104.4 7.66049C103.215 7.66049 102.24 7.31805 101.476 6.63317C100.739 5.92195 100.37 5.05269 100.37 4.02537C100.37 2.97171 100.739 2.10244 101.476 1.41756C102.24 0.706345 103.215 0.350735 104.4 0.350735C105.559 0.350735 106.507 0.706345 107.245 1.41756C108.009 2.10244 108.391 2.97171 108.391 4.02537C108.391 5.05269 108.009 5.92195 107.245 6.63317C106.507 7.31805 105.559 7.66049 104.4 7.66049ZM107.759 9.9522V32H101.002V9.9522H107.759ZM122.573 25.678L127.353 9.9522H134.545L126.721 32H118.384L110.561 9.9522H117.792L122.573 25.678ZM158.172 20.6205C158.172 21.2527 158.133 21.9112 158.054 22.5961H142.762C142.868 23.9659 143.302 25.0195 144.066 25.7571C144.856 26.4683 145.818 26.8239 146.951 26.8239C148.636 26.8239 149.809 26.1127 150.467 24.6902H157.658C157.29 26.139 156.618 27.4429 155.643 28.602C154.695 29.761 153.496 30.6698 152.048 31.3283C150.599 31.9868 148.979 32.3161 147.188 32.3161C145.028 32.3161 143.105 31.8551 141.419 30.9332C139.733 30.0112 138.416 28.6941 137.468 26.982C136.519 25.2698 136.045 23.2678 136.045 20.9761C136.045 18.6844 136.506 16.6824 137.428 14.9702C138.376 13.2581 139.694 11.941 141.379 11.019C143.065 10.0971 145.001 9.6361 147.188 9.6361C149.321 9.6361 151.218 10.0839 152.877 10.9795C154.537 11.8751 155.828 13.1527 156.75 14.8122C157.698 16.4717 158.172 18.4078 158.172 20.6205ZM151.257 18.8424C151.257 17.6834 150.862 16.7615 150.072 16.0766C149.282 15.3917 148.294 15.0493 147.109 15.0493C145.976 15.0493 145.015 15.3785 144.224 16.0371C143.46 16.6956 142.986 17.6307 142.802 18.8424H151.257Z"
    fill="#FFA500"
  ></path>
  <path
    d="M8.64097 78.4683H20.5737V84H0.975609V78.8634L12.8293 61.7941H0.975609V56.2624H20.5737V61.399L8.64097 78.4683ZM45.7707 72.6205C45.7707 73.2527 45.7312 73.9112 45.6522 74.5961H30.3609C30.4663 75.9659 30.9009 77.0195 31.6649 77.7571C32.4551 78.4683 33.4166 78.8239 34.5492 78.8239C36.2351 78.8239 37.4073 78.1127 38.0658 76.6902H45.257C44.8883 78.139 44.2166 79.4429 43.2419 80.602C42.2936 81.761 41.0951 82.6698 39.6463 83.3283C38.1975 83.9868 36.5775 84.3161 34.7863 84.3161C32.6263 84.3161 30.7034 83.8551 29.0175 82.9332C27.3317 82.0112 26.0146 80.6941 25.0663 78.982C24.118 77.2698 23.6439 75.2678 23.6439 72.9761C23.6439 70.6844 24.1049 68.6824 25.0268 66.9702C25.9751 65.2581 27.2922 63.941 28.978 63.019C30.6639 62.0971 32.6 61.6361 34.7863 61.6361C36.92 61.6361 38.8166 62.0839 40.4761 62.9795C42.1356 63.8751 43.4263 65.1527 44.3483 66.8122C45.2966 68.4717 45.7707 70.4078 45.7707 72.6205ZM38.8561 70.8424C38.8561 69.6834 38.4609 68.7615 37.6707 68.0766C36.8805 67.3917 35.8927 67.0493 34.7073 67.0493C33.5746 67.0493 32.6131 67.3785 31.8229 68.0371C31.059 68.6956 30.5849 69.6307 30.4005 70.8424H38.8561ZM56.0917 65.6268C56.882 64.4151 57.8698 63.4668 59.0551 62.782C60.2405 62.0707 61.5576 61.7151 63.0063 61.7151V68.8668H61.1493C59.4634 68.8668 58.199 69.2356 57.3561 69.9732C56.5132 70.6844 56.0917 71.9488 56.0917 73.7663V84H49.3351V61.9522H56.0917V65.6268ZM76.272 84.3161C74.112 84.3161 72.1627 83.8551 70.4242 82.9332C68.712 82.0112 67.3554 80.6941 66.3544 78.982C65.3798 77.2698 64.8924 75.2678 64.8924 72.9761C64.8924 70.7107 65.3929 68.722 66.3939 67.0098C67.3949 65.2712 68.7646 63.941 70.5032 63.019C72.2417 62.0971 74.191 61.6361 76.351 61.6361C78.511 61.6361 80.4602 62.0971 82.1988 63.019C83.9373 63.941 85.3071 65.2712 86.3081 67.0098C87.309 68.722 87.8095 70.7107 87.8095 72.9761C87.8095 75.2415 87.2959 77.2434 86.2685 78.982C85.2676 80.6941 83.8846 82.0112 82.1198 82.9332C80.3812 83.8551 78.432 84.3161 76.272 84.3161ZM76.272 78.4683C77.5627 78.4683 78.6559 77.9941 79.5515 77.0459C80.4734 76.0976 80.9344 74.741 80.9344 72.9761C80.9344 71.2112 80.4866 69.8546 79.591 68.9063C78.7217 67.9581 77.6417 67.4839 76.351 67.4839C75.0339 67.4839 73.9407 67.9581 73.0715 68.9063C72.2022 69.8283 71.7676 71.1849 71.7676 72.9761C71.7676 74.741 72.189 76.0976 73.032 77.0459C73.9012 77.9941 74.9812 78.4683 76.272 78.4683Z"
    fill="#000000"
  ></path>
</svg>
